<?xml version="1.0" standalone="no"?>
<!DOCTYPE svg PUBLIC "-//W3C//DTD SVG 1.1//EN" "http://www.w3.org/Graphics/SVG/1.1/DTD/svg11.dtd">
<svg xmlns="http://www.w3.org/2000/svg" id="Layer_2" viewBox="0 0 583.2 151.2" width="583.2000122070312" height="151.1999969482422"><defs><style>.cls-1,.cls-2{stroke-width:0px;}.cls-2{fill:#00a8e8;}</style></defs><circle class="cls-1" cx="70.78" cy="38.29" r="5.84"/><path class="cls-1" d="m78.32,63.29v-9.33c0-4.16-3.38-7.54-7.54-7.54s-7.54,3.38-7.54,7.54v9.33h15.08Z"/><polygon class="cls-2" points="75.68 67.88 65.88 67.88 60.98 76.37 65.88 84.85 75.68 84.85 80.58 76.37 75.68 67.88"/><path class="cls-1" d="m381.27,90.57h-25.82l-4.51,11.3h-7.03l20.47-50.94h7.87l20.55,50.94h-7.03l-4.51-11.3Zm-23.98-5.65h22.07l-11-28.34-11.08,28.34Z"/><path class="cls-1" d="m398.65,92.6c2.76,2.9,8.01,5.41,13.7,5.41,6.38,0,9.82-2.59,9.82-6.27,0-4.15-5.08-5.48-10.69-6.74-7.07-1.49-15.08-3.21-15.08-11.05,0-5.88,5.6-10.89,15.51-10.89,7.07,0,12.07,2.43,15.43,5.48l-3.02,4.07c-2.5-2.74-7.07-4.78-12.41-4.78-5.69,0-9.22,2.35-9.22,5.72,0,3.68,4.74,4.86,10.17,6.03,7.24,1.49,15.6,3.37,15.6,11.75,0,6.35-5.6,11.44-16.37,11.44-6.81,0-12.58-1.88-16.81-5.95l3.36-4.23Z"/><path class="cls-1" d="m437.75,92.6c2.76,2.9,8.01,5.41,13.7,5.41,6.38,0,9.82-2.59,9.82-6.27,0-4.15-5.08-5.48-10.69-6.74-7.07-1.49-15.08-3.21-15.08-11.05,0-5.88,5.6-10.89,15.51-10.89,7.07,0,12.07,2.43,15.43,5.48l-3.02,4.07c-2.5-2.74-7.07-4.78-12.41-4.78-5.69,0-9.22,2.35-9.22,5.72,0,3.68,4.74,4.86,10.17,6.03,7.24,1.49,15.6,3.37,15.6,11.75,0,6.35-5.6,11.44-16.37,11.44-6.81,0-12.58-1.88-16.81-5.95l3.36-4.23Z"/><path class="cls-1" d="m476,53.66c0-2.19,1.98-3.92,4.31-3.92s4.39,1.72,4.39,3.92-1.98,4-4.39,4-4.31-1.8-4.31-4Zm1.12,10.34h6.46v37.84h-6.46v-37.84Z"/><path class="cls-1" d="m495.28,92.6c2.76,2.9,8.01,5.41,13.7,5.41,6.38,0,9.82-2.59,9.82-6.27,0-4.15-5.08-5.48-10.69-6.74-7.07-1.49-15.08-3.21-15.08-11.05,0-5.88,5.6-10.89,15.51-10.89,7.07,0,12.07,2.43,15.43,5.48l-3.02,4.07c-2.5-2.74-7.07-4.78-12.41-4.78-5.69,0-9.22,2.35-9.22,5.72,0,3.68,4.74,4.86,10.17,6.03,7.24,1.49,15.6,3.37,15.6,11.75,0,6.35-5.6,11.44-16.37,11.44-6.81,0-12.58-1.88-16.81-5.95l3.36-4.23Z"/><path class="cls-1" d="m533.06,64v-10.34h6.46v10.34h11.31v5.17h-11.31v23.51c0,2.82,1.38,4.86,4.22,4.86,1.81,0,3.53-.71,4.39-1.57l1.9,4.39c-1.64,1.41-3.96,2.43-7.76,2.43-6.12,0-9.22-3.21-9.22-8.85v-29.93Z"/><path class="cls-1" d="m143.8,51.29h39.54c1.19,0,2.16.97,2.16,2.16v3.58c0,1.19-.97,2.36-2.16,2.36h-29.99c-1.24,0-2.24.8-2.24,2.04v8.74c0,1.24,1,2.24,2.24,2.24h27.05c1.19,0,2.16.97,2.16,2.16v3.58c0,1.19-.97,2.16-2.16,2.16h-27.05c-1.24,0-2.24,1-2.24,2.24v9.09c0,1.24,1,2.24,2.24,2.24h29.99c1.19,0,2.16.97,2.16,2.16v3.58c0,1.19-.97,2.16-2.16,2.16h-39.54c-1.34,0-2.42-1.08-2.42-2.42v-45.62c0-1.34,1.08-2.42,2.42-2.42Z"/><path class="cls-2" d="m191.54,95.07c0-.69.37-1.3.8-1.82,0,0,27.46-30.21,28.58-31.82.72-1.04.49-2.03-.6-2.03-2.19,0-26.5,0-26.5,0-1.24,0-2.25-1.01-2.25-2.25v-3.5c0-1.24,1.01-2.33,2.25-2.33h39.49c1.25,0,2.26,1.01,2.26,2.25v4.25c0,1.07-.52,1.91-1.23,2.8l-28,31.88c-.53.67-.2,1.3.6,1.29h26.45c1.22,0,2.21.98,2.21,2.2v3.6c0,1.21-.98,2.2-2.2,2.2l-39.57.08c-1.26,0-2.27-1.01-2.27-2.27v-4.51Z"/><path class="cls-2" d="m316.36,88.59c-1.13-.71-2.59-.34-3.33.77-1.76,2.65-4.69,4.54-8.61,4.54-4.44,0-7.61-2.42-9.25-5.63-.51-1.01.26-2.2,1.39-2.2h16.66s1.3,0,1.3,0h6.97c1.42,0,2.58-1.12,2.63-2.54,0-.17,0-.33,0-.5v-.68c0-10.27-7.88-19.34-19.7-19.34s-19.7,9.08-19.7,19.34v.68c0,10.27,7.88,19.34,19.7,19.34,7.17,0,12.88-3.34,16.27-8.25.74-1.07.47-2.54-.64-3.23l-3.69-2.31Zm-11.94-17.09c4.28,0,7.39,2.25,9.07,5.28.63,1.14-.18,2.54-1.48,2.54h-15.16c-1.3,0-2.12-1.4-1.48-2.54,1.68-3.03,4.78-5.28,9.06-5.28Z"/><path class="cls-2" d="m271.51,88.59c-1.13-.71-2.59-.34-3.33.77-1.76,2.65-4.69,4.54-8.61,4.54-4.44,0-7.61-2.42-9.25-5.63-.51-1.01.26-2.2,1.39-2.2h16.66s1.3,0,1.3,0h6.97c1.42,0,2.58-1.12,2.63-2.54,0-.17,0-.33,0-.5v-.68c0-10.27-7.88-19.34-19.7-19.34s-19.7,9.08-19.7,19.34v.68c0,10.27,7.88,19.34,19.7,19.34,7.17,0,12.88-3.34,16.27-8.25.74-1.07.47-2.54-.64-3.23l-3.69-2.31Zm-11.94-17.09c4.28,0,7.39,2.25,9.07,5.28.63,1.14-.18,2.54-1.48,2.54h-15.16c-1.3,0-2.12-1.4-1.48-2.54,1.68-3.03,4.78-5.28,9.06-5.28Z"/><circle class="cls-1" cx="70.82" cy="114.46" r="5.84"/><path class="cls-1" d="m63.25,89.46v9.33c.02,4.16,3.4,7.54,7.56,7.53,4.16,0,7.54-3.38,7.53-7.55v-9.33s-15.09.02-15.09.02Z"/><circle class="cls-1" cx="37.81" cy="57.34" r="5.84"/><path class="cls-1" d="m63.24,63.31l-8.08-4.66c-3.61-2.08-8.22-.85-10.3,2.76-2.08,3.61-.85,8.22,2.76,10.3l8.08,4.66,7.54-13.06Z"/><circle class="cls-1" cx="103.8" cy="95.39" r="5.84"/><path class="cls-1" d="m78.36,89.45l8.08,4.65c3.61,2.08,8.22.84,10.3-2.77s.84-8.22-2.77-10.3l-8.08-4.65-7.53,13.07Z"/><circle class="cls-1" cx="37.83" cy="95.42" r="5.84"/><path class="cls-1" d="m55.71,76.39l-8.08,4.66c-3.61,2.08-4.84,6.69-2.76,10.3s6.69,4.84,10.3,2.76l8.08-4.66-7.54-13.06Z"/><circle class="cls-2" cx="103.77" cy="57.3" r="5.84"/><path class="cls-2" d="m85.91,76.36l8.07-4.67c3.6-2.09,4.83-6.7,2.75-10.3-2.09-3.6-6.7-4.83-10.3-2.75l-8.07,4.67,7.56,13.05Z"/></svg>